<svg xmlns="http://www.w3.org/2000/svg" width="1536" height="1536" viewBox="0 0 1536 1536"> <circle cx="768" cy="768" r="768" fill="white"/> <g transform="translate(0,1536) scale(0.1,-0.1)" fill="currentColor" stroke="none"> <path d="M14430 14500 c-34 -34 -40 -19 136 -383 13 -26 26 -63 30 -82 3 -19 10 -38 15 -40 4 -3 11 -27 14 -53 4 -26 11 -61 16 -79 48 -155 -23 -465 -140 -613 -65 -82 -75 -92 -151 -149 -154 -114 -358 -206 -535 -240 -22 -4 -56 -12 -75 -18 -43 -14 -179 -36 -360 -59 l-135 -17 -649 1 c-356 1 -652 5 -657 8 -13 8 -11 49 5 81 13 26 21 44 63 140 9 21 20 45 25 53 4 8 11 22 14 30 62 158 232 435 342 559 145 162 255 230 451 281 97 26 237 7 346 -46 l59 -29 66 -65 c36 -36 83 -88 105 -115 22 -28 61 -71 87 -97 l48 -48 30 0 c81 0 147 98 149 220 l1 54 -17 46 c-40 108 -140 184 -348 263 -128 49 -404 32 -592 -37 -78 -29 -192 -87 -221 -113 -7 -7 -18 -13 -24 -13 -41 0 -341 -268 -475 -425 -89 -105 -262 -339 -308 -417 -5 -10 -40 -67 -77 -128 -38 -60 -68 -113 -68 -117 -1 -4 -8 -17 -18 -28 l-17 -20 -525 0 -525 -1 -160 -17 c-194 -21 -369 -44 -450 -59 -33 -6 -80 -15 -105 -19 -144 -26 -200 -37 -240 -48 -25 -7 -70 -19 -100 -28 -30 -8 -68 -19 -85 -25 -16 -5 -44 -13 -60 -17 -17 -4 -40 -13 -51 -19 l-21 -11 -17 18 c-9 9 -20 37 -25 62 -15 78 -32 142 -62 234 -16 50 -29 98 -29 107 0 9 -7 29 -15 44 -8 16 -15 37 -15 46 0 9 -6 29 -14 45 -8 15 -22 48 -32 73 -9 25 -23 59 -30 77 -8 17 -14 34 -14 37 0 15 -127 275 -174 356 -14 25 -30 54 -35 65 -5 11 -21 37 -35 58 -14 21 -26 40 -26 42 0 7 -89 134 -133 189 -23 30 -49 63 -57 74 -36 47 -114 127 -136 138 l-24 13 -5 -10 c-4 -5 -1 -9 4 -9 6 0 11 -13 11 -28 0 -16 7 -51 15 -78 45 -149 -10 -366 -154 -605 -12 -19 -24 -41 -28 -49 -4 -8 -27 -44 -52 -80 -24 -36 -55 -80 -68 -99 l-23 -34 0 -61 c0 -34 5 -128 11 -211 l12 -150 17 -53 c9 -29 30 -68 46 -87 l29 -35 27 0 26 0 41 46 c22 26 57 72 77 103 21 31 50 75 66 99 15 24 28 46 28 49 0 3 17 33 39 67 39 62 85 155 118 237 l17 44 0 80 0 80 -18 50 c-10 28 -21 59 -25 70 -38 101 -51 175 -31 175 5 0 15 -10 21 -22 7 -13 15 -25 19 -28 16 -11 151 -272 204 -395 7 -16 20 -46 29 -65 8 -19 23 -55 32 -80 10 -25 23 -57 31 -72 8 -14 14 -34 14 -45 0 -10 7 -27 15 -37 8 -11 15 -27 15 -37 0 -9 7 -30 15 -45 8 -16 15 -38 15 -50 0 -11 4 -24 9 -30 4 -5 18 -43 31 -84 12 -41 28 -91 35 -110 36 -101 45 -134 38 -140 -5 -3 -55 -21 -113 -39 -58 -19 -119 -40 -137 -48 -17 -7 -38 -13 -46 -13 -9 0 -28 -6 -44 -14 -15 -8 -44 -21 -63 -29 -19 -9 -65 -29 -101 -46 -37 -17 -70 -31 -74 -31 -27 0 -443 -213 -555 -284 -36 -22 -74 -47 -85 -54 -11 -6 -29 -17 -40 -22 -55 -27 -318 -209 -328 -226 -4 -8 -13 -14 -18 -14 -10 0 -166 -113 -184 -134 -5 -7 -39 -34 -75 -61 -68 -51 -80 -62 -170 -146 -30 -28 -94 -87 -142 -130 -108 -97 -318 -314 -430 -445 -13 -14 -33 -37 -45 -50 -13 -14 -49 -57 -80 -97 -32 -40 -68 -83 -80 -97 -13 -14 -23 -28 -23 -32 0 -3 -22 -33 -50 -65 -27 -32 -50 -62 -50 -66 0 -5 -20 -35 -45 -67 -25 -32 -45 -63 -45 -68 0 -6 -4 -12 -8 -14 -5 -1 -28 -36 -53 -76 -24 -40 -52 -85 -61 -100 -10 -15 -21 -34 -25 -42 -4 -8 -25 -46 -48 -85 -38 -64 -145 -280 -182 -365 -8 -19 -21 -48 -29 -63 -8 -16 -14 -36 -14 -46 0 -9 -4 -21 -9 -26 -10 -10 -65 -163 -80 -220 -4 -17 -13 -40 -19 -52 -7 -12 -12 -34 -12 -50 -1 -15 -7 -39 -15 -53 -8 -14 -14 -36 -15 -49 0 -13 -6 -47 -14 -75 -100 -352 -123 -969 -52 -1336 34 -174 39 -197 52 -228 8 -18 14 -42 14 -53 0 -12 6 -33 14 -47 18 -36 37 -91 43 -124 3 -15 11 -33 19 -39 8 -6 14 -16 14 -22 0 -17 70 -157 109 -217 46 -70 59 -91 67 -110 4 -8 14 -22 23 -31 9 -9 34 -40 56 -69 90 -119 336 -337 455 -402 59 -33 72 -41 105 -64 41 -28 238 -124 256 -124 8 0 23 -7 33 -15 11 -8 29 -15 41 -15 12 0 30 -7 41 -15 10 -8 28 -15 39 -15 11 0 29 -7 39 -15 11 -8 34 -15 50 -15 17 -1 42 -7 56 -15 14 -8 37 -14 51 -15 15 0 43 -7 62 -15 20 -8 50 -15 67 -15 17 0 56 -6 88 -14 154 -39 529 -60 832 -46 l155 6 13 -11 13 -12 -34 -69 c-19 -38 -48 -98 -65 -134 -16 -36 -44 -96 -62 -135 -35 -75 -296 -600 -345 -694 -26 -49 -72 -131 -112 -196 -7 -11 -15 -27 -19 -35 -8 -17 -159 -267 -186 -309 -10 -14 -21 -33 -25 -41 -11 -23 -166 -253 -180 -268 -7 -8 -18 -23 -25 -35 -6 -12 -59 -85 -117 -162 -398 -529 -806 -925 -1251 -1215 -137 -90 -149 -97 -175 -110 -11 -6 -42 -24 -70 -40 -71 -42 -273 -140 -289 -140 -7 0 -19 -7 -26 -15 -7 -8 -22 -15 -34 -15 -11 0 -30 -7 -40 -15 -11 -8 -30 -15 -42 -15 -12 0 -27 -7 -34 -15 -7 -8 -21 -15 -31 -15 -10 0 -33 -6 -51 -14 -49 -20 -99 -37 -138 -46 -78 -19 -127 -32 -170 -46 -25 -8 -57 -14 -72 -14 -15 0 -39 -5 -55 -11 -15 -6 -57 -14 -93 -19 -36 -4 -101 -13 -145 -18 -44 -6 -156 -16 -250 -22 l-170 -12 -170 15 c-93 8 -183 20 -198 26 -16 6 -40 11 -55 11 -24 0 -64 10 -157 42 -16 5 -47 14 -68 19 -21 5 -45 13 -55 18 -9 5 -37 17 -62 26 -56 22 -110 45 -130 57 -8 4 -22 11 -30 14 -8 3 -22 9 -30 14 -8 5 -51 27 -95 50 -94 48 -108 56 -156 92 -20 16 -39 28 -42 28 -15 0 -210 141 -311 225 -188 155 -468 430 -626 615 -39 47 -82 96 -93 110 -12 14 -40 48 -61 75 -22 28 -42 52 -46 55 -3 3 -20 25 -36 50 -17 25 -65 96 -107 158 -42 62 -77 115 -77 118 0 4 -13 23 -30 44 -16 21 -30 40 -30 43 0 9 -61 99 -84 125 -11 13 -40 32 -65 43 l-44 19 -66 0 c-147 -1 -289 -47 -356 -116 l-44 -45 -7 -45 c-8 -59 4 -180 22 -216 8 -15 14 -38 14 -51 0 -14 7 -30 15 -37 8 -7 15 -18 15 -24 0 -6 18 -45 40 -86 21 -41 45 -88 53 -105 8 -16 31 -54 51 -84 20 -29 36 -55 36 -56 0 -2 19 -32 43 -67 99 -144 142 -204 153 -213 6 -5 13 -15 15 -21 2 -6 18 -29 36 -50 17 -21 87 -109 155 -194 l123 -155 148 -147 c82 -82 176 -169 210 -194 34 -26 67 -52 72 -59 13 -14 212 -165 219 -165 3 0 33 -19 68 -43 75 -51 216 -137 225 -137 4 0 14 -6 22 -14 9 -8 74 -44 145 -81 70 -36 136 -70 145 -75 74 -39 209 -100 222 -100 8 0 20 -5 26 -11 6 -6 26 -14 44 -19 19 -5 59 -18 89 -30 30 -12 69 -25 85 -30 29 -8 56 -17 135 -45 19 -7 64 -21 100 -30 85 -23 143 -39 206 -59 29 -9 62 -16 75 -16 13 0 44 -6 69 -14 77 -24 249 -56 465 -86 226 -31 762 -34 973 -4 56 8 121 14 143 14 22 0 68 6 102 14 34 8 107 22 162 32 55 9 118 22 140 29 22 7 76 21 120 30 44 10 95 23 113 31 18 8 43 14 55 14 12 0 31 6 42 14 11 7 34 16 50 18 31 6 78 21 130 43 17 7 50 20 75 30 25 9 58 23 73 31 16 8 33 14 39 14 8 0 291 134 343 162 10 6 37 21 60 32 35 20 69 39 140 83 11 7 38 22 60 34 22 12 56 34 76 50 20 16 40 29 44 29 4 0 24 14 45 30 21 17 41 30 44 30 9 0 277 202 356 269 225 188 619 581 717 713 12 18 27 34 31 37 4 3 30 35 57 71 26 36 53 70 60 75 16 14 315 413 315 421 0 3 13 23 28 43 16 20 32 43 35 51 9 19 29 49 95 145 28 41 52 77 52 79 0 4 108 192 130 226 5 8 21 38 35 65 15 28 42 77 61 110 19 33 46 83 60 110 13 28 29 58 34 68 6 9 14 25 19 35 26 47 263 526 291 587 84 181 109 239 135 305 10 25 24 60 32 77 23 54 43 101 57 135 8 18 21 50 30 71 9 21 16 45 16 55 0 9 7 26 15 36 8 11 15 28 15 37 0 10 6 30 14 46 8 15 22 48 31 73 9 25 23 58 31 73 8 16 14 37 14 47 0 11 6 34 14 52 17 42 35 94 46 133 5 17 18 55 30 85 12 30 25 69 30 85 23 83 61 175 72 175 11 0 186 106 273 166 33 22 83 56 110 75 28 19 52 36 55 39 3 3 28 23 55 45 210 166 496 451 595 594 14 20 30 41 37 48 19 21 135 194 153 228 6 11 19 34 30 50 11 17 26 44 34 60 8 17 23 46 34 65 10 19 26 51 34 70 9 19 29 64 46 100 32 68 48 112 76 196 l17 52 -4 128 -3 129 -15 35 c-19 47 -38 71 -74 95 l-30 20 -89 0 -88 0 -29 -35 c-16 -19 -29 -43 -29 -54 l0 -20 47 -48 46 -47 0 -101 0 -101 -17 -57 c-10 -31 -24 -70 -32 -85 -8 -16 -14 -33 -14 -38 0 -5 -14 -39 -31 -76 -17 -38 -44 -97 -60 -133 -16 -36 -34 -72 -39 -80 -5 -8 -24 -44 -42 -80 -18 -36 -61 -107 -95 -159 -35 -51 -63 -96 -63 -98 0 -5 -97 -131 -110 -143 -3 -3 -23 -27 -45 -55 -79 -100 -273 -294 -399 -400 -38 -32 -78 -67 -88 -77 -10 -10 -21 -18 -26 -18 -4 0 -18 -10 -32 -23 -51 -46 -123 -97 -131 -91 -12 7 -12 41 0 48 5 3 12 23 16 43 4 21 10 43 14 48 5 6 19 44 31 85 13 41 27 80 31 85 4 6 10 25 14 43 4 18 13 45 21 60 8 15 14 37 14 49 0 12 4 24 9 28 5 3 12 20 16 38 7 34 30 109 50 167 7 19 21 62 30 95 10 33 24 75 31 93 8 18 14 40 14 50 0 15 9 45 40 132 6 19 16 51 20 70 4 19 13 49 18 65 6 17 18 57 28 90 9 33 23 78 29 100 7 22 20 67 29 100 10 33 23 80 31 105 7 25 20 72 29 105 10 33 23 83 31 110 24 82 45 157 61 215 9 30 20 69 26 85 5 17 14 46 18 65 5 19 16 60 26 90 9 30 22 80 29 110 8 30 18 69 24 85 5 17 17 57 26 90 9 33 21 74 27 90 6 17 14 48 18 70 4 22 12 54 18 70 6 17 17 55 25 85 22 78 45 157 62 213 8 26 15 58 15 70 1 12 7 33 15 47 8 14 14 39 15 56 0 16 7 39 15 50 8 10 15 30 15 43 0 13 7 44 14 70 8 25 22 71 30 101 35 128 48 177 58 205 6 17 14 48 18 70 5 22 18 72 30 110 12 39 25 86 29 106 4 19 11 41 15 47 4 7 11 33 16 60 4 26 13 61 18 77 6 17 18 57 27 90 9 33 23 80 31 105 8 25 14 57 14 71 0 14 7 34 15 45 8 10 15 30 15 43 0 13 7 44 14 70 15 46 35 116 63 221 8 30 19 69 25 85 6 17 14 48 18 70 5 22 18 72 30 110 12 39 25 88 30 110 4 22 13 54 18 70 6 17 17 55 25 85 37 142 50 188 63 225 8 23 14 50 14 62 0 11 7 37 15 56 8 20 15 47 15 61 0 13 6 26 13 28 20 8 726 -11 812 -21 44 -6 197 -10 340 -11 l260 0 105 16 c58 8 132 20 165 26 33 6 78 14 100 18 71 13 139 32 168 46 16 8 37 14 47 14 10 0 31 6 47 14 15 8 44 21 63 29 334 141 571 360 722 668 21 43 38 81 38 85 0 3 6 20 14 37 80 180 93 405 36 617 -112 420 -223 607 -310 520z m-3860 -1950 c52 -6 174 -14 271 -20 97 -5 189 -12 203 -16 15 -3 99 -9 189 -13 l162 -6 3 -19 c2 -11 -12 -51 -31 -90 -19 -39 -50 -102 -68 -141 -17 -38 -38 -82 -45 -97 -8 -14 -14 -31 -14 -37 0 -6 -13 -40 -30 -74 -16 -35 -30 -69 -30 -75 0 -6 -6 -23 -14 -39 -8 -15 -22 -48 -31 -73 -10 -25 -23 -58 -30 -75 -7 -16 -20 -49 -29 -72 -41 -109 -49 -130 -62 -155 -8 -14 -14 -35 -14 -45 0 -10 -5 -24 -11 -30 -6 -6 -14 -26 -19 -44 -5 -19 -18 -59 -30 -89 -12 -30 -25 -70 -30 -89 -5 -18 -13 -38 -19 -44 -6 -6 -11 -21 -11 -33 0 -12 -6 -35 -14 -51 -19 -39 -37 -92 -44 -128 -2 -16 -11 -39 -18 -50 -8 -11 -14 -31 -14 -45 0 -14 -6 -34 -14 -45 -7 -11 -16 -33 -18 -50 -3 -16 -11 -46 -18 -65 -7 -19 -18 -51 -25 -70 -7 -19 -18 -51 -25 -70 -6 -19 -16 -51 -20 -70 -4 -19 -14 -51 -20 -70 -7 -19 -18 -51 -25 -70 -7 -19 -18 -51 -24 -70 -7 -19 -16 -48 -21 -65 -5 -16 -13 -43 -18 -60 -6 -16 -18 -57 -28 -90 -9 -33 -23 -72 -30 -87 -8 -14 -14 -35 -14 -47 0 -11 -6 -35 -14 -53 -21 -51 -37 -99 -46 -138 -4 -19 -14 -51 -20 -70 -7 -19 -18 -51 -25 -70 -7 -19 -18 -51 -25 -70 -6 -19 -15 -51 -19 -71 -4 -19 -11 -42 -16 -49 -5 -7 -12 -30 -16 -49 -4 -20 -13 -52 -19 -71 -7 -19 -18 -51 -25 -70 -7 -19 -18 -51 -25 -70 -6 -19 -16 -51 -20 -70 -4 -19 -14 -51 -20 -70 -49 -137 -70 -205 -70 -226 0 -11 -7 -28 -15 -38 -8 -11 -15 -32 -15 -46 0 -14 -7 -35 -15 -46 -8 -10 -15 -30 -15 -44 0 -14 -7 -36 -15 -50 -8 -14 -14 -35 -15 -47 0 -12 -6 -37 -14 -55 -21 -51 -37 -99 -46 -138 -4 -19 -13 -50 -19 -67 -27 -80 -33 -100 -41 -128 -5 -16 -13 -45 -19 -62 -6 -18 -16 -48 -22 -65 -6 -18 -14 -46 -19 -63 -8 -28 -14 -48 -41 -127 -6 -18 -14 -49 -19 -68 -4 -19 -12 -46 -17 -60 -6 -14 -18 -52 -28 -85 -9 -33 -23 -76 -30 -95 -7 -19 -20 -62 -29 -95 -10 -33 -22 -73 -28 -90 -5 -16 -13 -43 -18 -60 -8 -29 -18 -59 -41 -127 -6 -18 -14 -46 -17 -63 -2 -16 -11 -39 -18 -50 -8 -11 -14 -28 -14 -39 0 -19 -8 -47 -40 -136 -6 -19 -16 -51 -20 -70 -9 -39 -25 -87 -46 -138 -8 -18 -14 -45 -14 -60 0 -16 -7 -37 -15 -48 -8 -10 -15 -31 -15 -45 0 -15 -7 -40 -15 -55 -8 -16 -15 -39 -15 -50 0 -12 -7 -35 -15 -50 -8 -16 -15 -44 -15 -62 l0 -32 -32 -20 c-18 -11 -42 -20 -53 -20 -11 0 -40 -6 -65 -14 -106 -34 -376 -92 -535 -115 l-70 -10 -9 9 -9 9 13 43 c8 24 20 52 27 63 7 11 13 29 13 40 0 12 4 25 9 30 10 10 36 77 51 130 4 17 18 55 30 85 41 106 51 135 60 165 8 28 13 45 47 138 7 20 13 45 13 55 0 9 7 30 15 46 8 15 15 37 15 47 0 10 6 33 14 51 7 18 21 60 31 93 9 33 23 76 30 95 13 37 31 102 44 160 4 19 13 45 19 57 7 12 12 32 12 45 0 13 6 43 14 68 8 25 21 68 30 96 9 29 16 62 16 74 0 12 6 36 14 53 7 18 21 68 30 112 10 44 22 98 28 120 5 22 13 63 18 90 5 28 13 66 19 85 5 19 17 71 26 115 9 44 21 100 27 125 6 25 14 72 18 105 9 66 23 151 45 260 7 39 19 97 25 130 7 33 15 96 20 140 4 44 13 112 19 150 42 275 53 406 81 935 l21 405 -16 355 c-9 195 -22 414 -30 485 -8 72 -15 151 -15 177 0 26 -4 58 -10 73 -5 14 -14 67 -19 118 -13 118 -28 225 -46 307 -7 36 -21 101 -30 145 -9 44 -23 103 -31 130 -7 28 -15 68 -16 90 l-3 39 35 8 c156 33 192 41 245 50 33 5 92 16 130 23 39 8 111 17 160 20 50 3 115 10 145 14 80 12 489 12 600 1z m-1460 -195 c0 -13 5 -36 11 -52 6 -15 14 -57 19 -93 4 -36 13 -90 18 -120 24 -121 35 -188 42 -250 4 -36 13 -103 19 -150 26 -206 41 -361 41 -433 0 -43 4 -119 9 -170 36 -343 11 -1117 -50 -1617 -6 -47 -14 -125 -19 -175 -8 -97 -23 -207 -45 -350 -8 -49 -16 -106 -19 -125 -4 -33 -18 -103 -31 -159 l-6 -24 -11 11 -12 12 -7 137 c-20 356 -120 506 -361 543 l-58 8 -72 -18 c-40 -10 -97 -31 -126 -46 l-54 -29 -76 -81 c-43 -44 -87 -100 -100 -125 -12 -24 -26 -51 -31 -59 -31 -57 -56 -218 -37 -248 l6 -10 90 24 90 23 73 -10 c131 -17 152 -21 172 -35 11 -8 25 -14 32 -14 68 0 313 -239 313 -305 0 -6 5 -16 12 -23 11 -11 17 -26 54 -131 l16 -45 -12 -40 c-6 -23 -16 -54 -22 -71 -5 -16 -13 -46 -17 -65 -5 -19 -13 -55 -20 -80 -7 -25 -18 -67 -26 -95 -7 -27 -20 -75 -28 -105 -9 -30 -18 -66 -21 -80 -2 -14 -9 -40 -15 -57 -33 -99 -58 -181 -70 -233 -5 -19 -13 -46 -18 -60 -6 -14 -18 -52 -28 -85 -24 -84 -54 -176 -64 -200 -13 -33 -32 -88 -41 -120 -13 -48 -31 -98 -46 -128 -8 -16 -14 -39 -14 -51 0 -12 -5 -27 -11 -33 -6 -6 -14 -26 -19 -44 -9 -37 -26 -88 -46 -134 -7 -16 -20 -50 -29 -75 -9 -25 -23 -58 -31 -73 -8 -16 -14 -36 -14 -46 0 -9 -6 -25 -14 -36 -7 -11 -16 -31 -19 -45 -6 -31 -24 -81 -49 -138 l-19 -43 -17 5 c-9 3 -109 12 -222 20 -202 15 -270 24 -382 52 -32 8 -68 14 -80 14 -13 0 -43 6 -68 14 -25 8 -72 22 -105 31 -33 10 -73 23 -90 30 -16 7 -47 20 -68 29 -21 9 -42 16 -47 16 -10 0 -197 90 -235 113 -11 7 -50 31 -87 55 -37 23 -72 42 -77 42 -6 0 -11 4 -11 8 0 5 -29 30 -65 56 -111 81 -385 360 -385 391 0 4 -13 24 -30 45 -16 21 -30 40 -30 43 0 4 -10 21 -22 39 -43 63 -158 307 -158 334 0 9 -6 28 -14 42 -12 25 -26 68 -56 182 -6 25 -15 77 -20 115 -4 39 -13 93 -19 121 l-12 50 4 295 3 294 12 65 c6 36 18 117 28 180 9 63 22 138 29 165 21 80 37 147 45 190 4 22 13 56 20 75 30 83 38 108 55 165 23 81 55 164 91 238 8 16 14 35 14 42 0 7 6 26 14 42 15 30 41 89 50 113 3 8 10 22 15 30 5 8 38 74 73 145 34 72 95 184 134 250 39 66 74 127 78 135 12 25 27 50 142 220 147 219 164 244 173 250 4 3 36 43 71 90 35 47 68 88 72 91 4 3 19 20 32 37 147 200 674 695 858 807 9 6 55 37 103 70 47 33 92 63 98 67 87 53 167 98 175 98 6 0 12 4 14 8 5 13 397 202 419 202 9 0 70 25 111 46 14 8 35 14 46 14 12 0 24 4 27 10 7 11 66 29 78 23 4 -2 7 -15 7 -28z m150 -6315 c0 -16 -4 -31 -9 -35 -5 -3 -13 -20 -17 -38 -6 -30 -11 -43 -48 -129 -9 -20 -16 -44 -16 -55 0 -10 -7 -27 -15 -37 -8 -11 -15 -29 -15 -41 0 -12 -7 -30 -15 -41 -8 -10 -15 -28 -15 -39 0 -11 -7 -29 -15 -39 -8 -11 -15 -29 -15 -40 0 -12 -7 -30 -15 -40 -8 -11 -15 -28 -15 -37 0 -10 -6 -30 -14 -46 -8 -15 -22 -48 -31 -73 -10 -25 -24 -60 -32 -77 -7 -18 -20 -49 -28 -68 -8 -19 -22 -51 -30 -70 -14 -34 -29 -68 -59 -137 -39 -88 -166 -354 -186 -388 -5 -8 -11 -22 -14 -30 -3 -8 -10 -22 -15 -30 -5 -8 -18 -33 -29 -55 -11 -22 -36 -69 -56 -105 -19 -36 -47 -87 -61 -115 -14 -27 -35 -63 -45 -80 -11 -16 -24 -39 -29 -50 -5 -11 -20 -36 -33 -55 -13 -19 -27 -42 -31 -50 -4 -8 -16 -28 -27 -45 -11 -16 -23 -37 -27 -45 -3 -8 -19 -31 -35 -51 -15 -20 -28 -39 -28 -42 0 -8 -170 -260 -191 -283 -10 -11 -19 -24 -19 -27 0 -7 -30 -50 -125 -179 -293 -397 -703 -856 -965 -1078 -36 -30 -81 -69 -100 -88 -40 -38 -375 -292 -385 -292 -4 0 -24 -12 -44 -27 -39 -31 -38 -30 -161 -104 -99 -60 -427 -229 -446 -229 -7 0 -25 -6 -41 -14 -27 -14 -78 -34 -153 -61 -19 -7 -51 -18 -70 -25 -19 -6 -51 -16 -70 -20 -19 -4 -48 -13 -65 -18 -66 -23 -139 -42 -162 -42 -13 0 -45 -6 -71 -14 -75 -22 -253 -45 -445 -57 l-179 -11 -171 12 c-161 10 -293 27 -412 51 -27 5 -72 13 -100 18 -27 4 -66 12 -85 18 -19 6 -62 19 -95 28 -33 9 -73 21 -90 27 -16 5 -43 13 -60 18 -48 13 -98 31 -128 46 -16 8 -35 14 -42 14 -7 0 -26 6 -42 14 -15 7 -45 21 -66 30 -20 8 -52 22 -70 30 -52 23 -247 120 -312 156 -33 18 -78 43 -100 54 -22 12 -68 41 -103 64 -35 23 -65 42 -67 42 -4 0 -107 70 -205 139 -65 45 -80 56 -103 76 -7 6 -28 22 -47 35 -19 13 -37 27 -40 30 -3 3 -25 21 -50 40 -25 19 -47 37 -50 41 -3 4 -27 23 -55 44 -27 21 -62 50 -77 66 -15 16 -32 29 -37 29 -6 0 -11 6 -11 13 0 8 -11 19 -24 26 l-24 13 -13 -7 -12 -8 7 27 6 26 -25 0 -26 0 6 9 c3 5 -6 21 -20 35 -25 25 -34 56 -16 56 21 0 66 -32 115 -81 29 -30 65 -61 81 -69 16 -8 51 -36 78 -62 27 -27 54 -48 61 -48 6 0 25 -12 41 -28 35 -31 60 -48 93 -62 12 -5 22 -14 22 -20 0 -5 8 -10 19 -10 10 0 24 -7 31 -15 7 -8 18 -15 26 -15 7 0 19 -6 26 -13 13 -13 188 -100 263 -131 22 -10 52 -24 67 -32 14 -7 33 -14 41 -14 8 0 28 -7 43 -15 16 -8 36 -15 44 -15 9 0 20 -4 25 -9 6 -6 28 -14 50 -20 22 -5 54 -14 70 -20 17 -5 57 -17 90 -25 33 -8 80 -20 105 -27 25 -7 68 -16 95 -20 28 -4 75 -12 105 -17 30 -6 109 -19 175 -29 l120 -18 380 0 380 0 100 18 c55 10 130 25 166 33 37 7 77 14 89 14 12 0 31 5 43 12 12 6 40 15 62 19 38 7 58 13 150 47 114 41 166 63 217 89 14 7 31 13 38 13 15 0 311 145 365 179 22 14 55 34 74 44 19 10 52 31 75 45 23 14 57 35 77 47 85 48 419 296 519 385 40 36 98 87 129 115 159 141 463 463 561 595 22 30 44 56 49 59 11 8 311 409 311 417 0 3 14 23 30 44 17 21 30 40 30 43 0 3 19 34 43 69 24 35 67 101 96 148 29 47 56 92 62 100 5 8 36 62 69 120 33 58 65 112 70 120 5 8 27 49 48 90 22 41 49 91 60 110 11 19 30 55 42 80 12 25 25 52 30 60 5 8 19 35 30 60 12 25 25 52 30 60 11 18 76 154 95 195 7 17 26 59 43 95 56 121 80 175 117 265 20 50 42 104 49 120 21 48 44 108 51 131 3 12 17 34 30 48 l24 26 48 0 c26 1 68 5 93 10 25 6 65 14 90 19 55 10 130 29 190 46 122 35 168 49 200 61 19 7 50 16 67 19 18 4 35 11 39 16 10 17 24 -1 24 -31z"></path> </g> </svg>
